<svg id="vector" xmlns="http://www.w3.org/2000/svg" width="24" height="24" viewBox="0 0 24 24"><path fill="#FFFFFF" fill-rule="evenodd" d="M 18.932 11.655000000000001 L 16.254 10.763000000000002 L 16.254 9.158 L 12.546 6.662000000000001 L 12.546 6.068 L 15.437000000000001 4.551 L 12.459 2.7379999999999995 C 12.341999999999999 2.5600000000000005 12.138000000000002 2.442 11.905000000000001 2.442 C 11.553999999999998 2.442 11.262 2.7379999999999995 11.262 3.0950000000000006 L 11.262 6.632 L 7.496 9.158 L 7.496 10.763000000000002 L 5.069000000000001 11.655000000000001 C 4.105 11.655000000000001 3.317 12.457999999999998 3.317 13.439 L 3.317 19.775 C 3.317 20.756 4.105 21.558 5.069000000000001 21.558 L 18.932 21.558 C 19.895 21.558 20.683 20.756 20.683 19.775 L 20.683 13.439 C 20.683 12.457999999999998 19.895 11.655000000000001 18.932 11.655000000000001 M 11.875 15.663 C 10.591999999999999 15.663 9.542 14.594000000000001 9.542 13.288 C 9.542 11.982 10.591999999999999 10.913 11.875 10.913 C 13.158999999999999 10.913 14.207 11.982 14.207 13.288 C 14.207 14.594000000000001 13.158999999999999 15.663 11.875 15.663 " stroke-width="1.0" stroke="#00000000" id="path_0"/></svg>