<svg xmlns="http://www.w3.org/2000/svg" viewBox="0 0 400 400" width="400" height="400" preserveAspectRatio="xMidYMid meet" style="width: 100%; height: 100%; transform: translate3d(0px, 0px, 0px);"><defs><clipPath id="__lottie_element_7"><rect width="400" height="400" x="0" y="0"></rect></clipPath></defs><g clip-path="url(#__lottie_element_7)"><g transform="matrix(10,0,0,10,0,0)" opacity="1" style="display: block;"><g opacity="1" transform="matrix(1,0,0,1,20.04599952697754,16.558000564575195)"><path fill="rgb(200,201,202)" fill-opacity="1" d=" M-8.836999893188477,0 C-8.836999893188477,4.918000221252441 -4.880000114440918,8.904999732971191 0.0010000000474974513,8.904999732971191 C4.880000114440918,8.904999732971191 8.836999893188477,4.918000221252441 8.836999893188477,0 C8.836999893188477,-4.919000148773193 4.880000114440918,-8.904999732971191 0.0010000000474974513,-8.904999732971191 C-4.880000114440918,-8.904999732971191 -8.836999893188477,-4.919000148773193 -8.836999893188477,0z"></path><path fill="rgb(247,208,78)" fill-opacity="0.00986292811246031" d=" M-8.836999893188477,0 C-8.836999893188477,4.918000221252441 -4.880000114440918,8.904999732971191 0.0010000000474974513,8.904999732971191 C4.880000114440918,8.904999732971191 8.836999893188477,4.918000221252441 8.836999893188477,0 C8.836999893188477,-4.919000148773193 4.880000114440918,-8.904999732971191 0.0010000000474974513,-8.904999732971191 C-4.880000114440918,-8.904999732971191 -8.836999893188477,-4.919000148773193 -8.836999893188477,0z"></path></g><g opacity="1" transform="matrix(1,0,0,1,20.04599952697754,28.2450008392334)"><path fill="rgb(89,89,89)" fill-opacity="1" d=" M3.7899999618530273,1.156999945640564 C3.7739999294281006,1.246000051498413 3.75600004196167,1.3350000381469727 3.7339999675750732,1.4220000505447388 C3.7339999675750732,1.4220000505447388 3.7039999961853027,1.5640000104904175 3.7039999961853027,1.5640000104904175 C3.7039999961853027,1.5640000104904175 3.694999933242798,1.5640000104904175 3.694999933242798,1.5640000104904175 C3.24399995803833,3.1080000400543213 1.815999984741211,4.236000061035156 0.12600000202655792,4.236000061035156 C-1.5640000104904175,4.236000061035156 -2.990000009536743,3.1080000400543213 -3.440999984741211,1.5640000104904175 C-3.440999984741211,1.5640000104904175 -3.443000078201294,1.5640000104904175 -3.443000078201294,1.5640000104904175 C-3.443000078201294,1.5640000104904175 -3.4619998931884766,1.4900000095367432 -3.4619998931884766,1.4900000095367432 C-3.4709999561309814,1.4589999914169312 -3.4790000915527344,1.4270000457763672 -3.4860000610351562,1.3940000534057617 C-3.4860000610351562,1.3940000534057617 -4.926000118255615,-4.236000061035156 -4.926000118255615,-4.236000061035156 C-4.926000118255615,-4.236000061035156 4.926000118255615,-4.236000061035156 4.926000118255615,-4.236000061035156 C4.926000118255615,-4.236000061035156 3.7899999618530273,1.156999945640564 3.7899999618530273,1.156999945640564z"></path></g><g opacity="1" transform="matrix(1,0,0,1,20,17)"><path stroke-linecap="round" stroke-linejoin="miter" fill-opacity="0" stroke-miterlimit="4" stroke="rgb(247,208,78)" stroke-opacity="1" stroke-width="0" d="M0 0"></path></g></g></g></svg>